<svg xmlns="http://www.w3.org/2000/svg" viewBox="0 0 400 500" width="400" height="500">
  <rect width="400" height="500" fill="#e8ede0"/>
  <!-- Fern stem -->
  <path d="M200 480 Q195 380 190 280 Q185 180 200 80" fill="none" stroke="#5a7a3a" stroke-width="2.5" stroke-linecap="round"/>
  <!-- Fronds left -->
  <path d="M198 420 Q170 400 150 380 Q165 385 175 400 Q158 388 140 375" fill="none" stroke="#6a8a4a" stroke-width="1.5" stroke-linecap="round"/>
  <path d="M196 370 Q162 345 138 325 Q155 332 168 348 Q153 333 132 316" fill="none" stroke="#6a8a4a" stroke-width="1.5" stroke-linecap="round"/>
  <path d="M194 320 Q155 292 128 268 Q147 278 162 296 Q145 278 122 260" fill="none" stroke="#6a8a4a" stroke-width="1.5" stroke-linecap="round"/>
  <path d="M193 270 Q150 240 120 214 Q142 225 158 245 Q138 224 112 204" fill="none" stroke="#6a8a4a" stroke-width="1.5" stroke-linecap="round"/>
  <path d="M193 220 Q154 188 126 160 Q150 172 164 196 Q142 170 118 148" fill="none" stroke="#7a9a5a" stroke-width="1.4" stroke-linecap="round"/>
  <path d="M194 175 Q158 142 134 112 Q158 125 170 152 Q150 124 128 100" fill="none" stroke="#7a9a5a" stroke-width="1.3" stroke-linecap="round"/>
  <!-- Fronds right -->
  <path d="M202 420 Q230 400 250 380 Q235 385 225 400 Q242 388 260 375" fill="none" stroke="#6a8a4a" stroke-width="1.5" stroke-linecap="round"/>
  <path d="M204 370 Q238 345 262 325 Q245 332 232 348 Q247 333 268 316" fill="none" stroke="#6a8a4a" stroke-width="1.5" stroke-linecap="round"/>
  <path d="M206 320 Q245 292 272 268 Q253 278 238 296 Q255 278 278 260" fill="none" stroke="#6a8a4a" stroke-width="1.5" stroke-linecap="round"/>
  <path d="M207 270 Q250 240 280 214 Q258 225 242 245 Q262 224 288 204" fill="none" stroke="#6a8a4a" stroke-width="1.5" stroke-linecap="round"/>
  <path d="M207 220 Q246 188 274 160 Q250 172 236 196 Q258 170 282 148" fill="none" stroke="#7a9a5a" stroke-width="1.4" stroke-linecap="round"/>
  <!-- Spiral tip -->
  <path d="M199 80 Q202 60 210 50 Q218 42 220 35 Q218 28 212 26 Q206 24 202 30 Q198 36 200 45" fill="none" stroke="#5a7a3a" stroke-width="2" stroke-linecap="round"/>
  <!-- Placeholder label -->
  <text x="200" y="495" font-family="Georgia, serif" font-size="11" fill="#8a9a7a" text-anchor="middle" opacity="0.6">Fern Study No. 3 — placeholder</text>
</svg>
