<svg xmlns="http://www.w3.org/2000/svg" viewBox="0 0 400 400" width="400" height="400">
  <rect width="400" height="400" fill="#f5f0e8"/>
  <!-- Outer circle -->
  <circle cx="200" cy="200" r="180" fill="none" stroke="#c17d4a" stroke-width="1"/>
  <circle cx="200" cy="200" r="155" fill="none" stroke="#c17d4a" stroke-width="0.6" opacity="0.5"/>
  <circle cx="200" cy="200" r="120" fill="none" stroke="#c17d4a" stroke-width="0.8"/>
  <circle cx="200" cy="200" r="85"  fill="none" stroke="#c17d4a" stroke-width="0.6"/>
  <circle cx="200" cy="200" r="48"  fill="none" stroke="#c17d4a" stroke-width="0.8"/>
  <circle cx="200" cy="200" r="18"  fill="none" stroke="#c17d4a" stroke-width="1"/>
  <!-- Petals x8 -->
  <ellipse cx="200" cy="126" rx="22" ry="55" fill="#e8c49a" opacity="0.35" stroke="#c17d4a" stroke-width="0.8"/>
  <ellipse cx="200" cy="126" rx="22" ry="55" fill="#e8c49a" opacity="0.35" stroke="#c17d4a" stroke-width="0.8" transform="rotate(45 200 200)"/>
  <ellipse cx="200" cy="126" rx="22" ry="55" fill="#e8c49a" opacity="0.35" stroke="#c17d4a" stroke-width="0.8" transform="rotate(90 200 200)"/>
  <ellipse cx="200" cy="126" rx="22" ry="55" fill="#e8c49a" opacity="0.35" stroke="#c17d4a" stroke-width="0.8" transform="rotate(135 200 200)"/>
  <ellipse cx="200" cy="126" rx="22" ry="55" fill="#e8c49a" opacity="0.35" stroke="#c17d4a" stroke-width="0.8" transform="rotate(180 200 200)"/>
  <ellipse cx="200" cy="126" rx="22" ry="55" fill="#e8c49a" opacity="0.35" stroke="#c17d4a" stroke-width="0.8" transform="rotate(225 200 200)"/>
  <ellipse cx="200" cy="126" rx="22" ry="55" fill="#e8c49a" opacity="0.35" stroke="#c17d4a" stroke-width="0.8" transform="rotate(270 200 200)"/>
  <ellipse cx="200" cy="126" rx="22" ry="55" fill="#e8c49a" opacity="0.35" stroke="#c17d4a" stroke-width="0.8" transform="rotate(315 200 200)"/>
  <!-- Radial lines -->
  <line x1="200" y1="18" x2="200" y2="382" stroke="#c17d4a" stroke-width="0.5" opacity="0.3"/>
  <line x1="18"  y1="200" x2="382" y2="200" stroke="#c17d4a" stroke-width="0.5" opacity="0.3"/>
  <line x1="72"  y1="72"  x2="328" y2="328" stroke="#c17d4a" stroke-width="0.5" opacity="0.3"/>
  <line x1="328" y1="72"  x2="72"  y2="328" stroke="#c17d4a" stroke-width="0.5" opacity="0.3"/>
  <!-- Centre -->
  <circle cx="200" cy="200" r="7" fill="#c17d4a" opacity="0.8"/>
  <text x="200" y="396" font-family="Georgia, serif" font-size="11" fill="#b07040" text-anchor="middle" opacity="0.5">Mandala Study I — placeholder</text>
</svg>
